<svg width="24" height="16" viewBox="0 0 24 16" fill="none" xmlns="http://www.w3.org/2000/svg">
<path fill-rule="evenodd" clip-rule="evenodd" d="M0 1.14286C0 0.511675 0.671573 0 1.5 0H22.5C23.3284 0 24 0.511675 24 1.14286C24 1.77404 23.3284 2.28571 22.5 2.28571H1.5C0.671573 2.28571 0 1.77404 0 1.14286ZM0 8C0 7.36882 0.671573 6.85714 1.5 6.85714H22.5C23.3284 6.85714 24 7.36882 24 8C24 8.63118 23.3284 9.14286 22.5 9.14286H1.5C0.671573 9.14286 0 8.63118 0 8ZM0 14.8571C0 14.226 0.671573 13.7143 1.5 13.7143H22.5C23.3284 13.7143 24 14.226 24 14.8571C24 15.4883 23.3284 16 22.5 16H1.5C0.671573 16 0 15.4883 0 14.8571Z" fill="#26364B"></path>
</svg>
