<svg width="22" height="22" viewBox="0 0 22 22" fill="none" xmlns="http://www.w3.org/2000/svg">
<path fill-rule="evenodd" clip-rule="evenodd" d="M11 2.44442C8.72188 2.44442 6.87509 4.08603 6.87509 6.11105C6.87509 8.13607 8.72188 9.77768 11 9.77768C13.2781 9.77768 15.1249 8.13607 15.1249 6.11105C15.1249 4.08603 13.2781 2.44442 11 2.44442ZM4.12516 6.11105C4.12516 2.73601 7.20313 0 11 0C14.7969 0 17.8748 2.73601 17.8748 6.11105C17.8748 9.48609 14.7969 12.2221 11 12.2221C7.20313 12.2221 4.12516 9.48609 4.12516 6.11105ZM4.69732 16.1444C6.60426 15.1758 8.78327 14.6665 11 14.6665C13.2167 14.6665 15.3957 15.1758 17.3027 16.1444C19.2101 17.1133 20.7771 18.5074 21.8263 20.1833C22.1955 20.7731 21.9569 21.5173 21.2934 21.8456C20.6298 22.1738 19.7925 21.9617 19.4233 21.3719C18.6253 20.0971 17.4232 19.021 15.9383 18.2668C14.453 17.5123 12.7452 17.1109 11 17.1109C9.25478 17.1109 7.54703 17.5123 6.06167 18.2668C4.57677 19.021 3.37472 20.0971 2.5767 21.3719C2.20745 21.9617 1.3702 22.1738 0.706645 21.8456C0.0430872 21.5173 -0.195502 20.7731 0.173741 20.1833C1.22288 18.5074 2.78992 17.1133 4.69732 16.1444Z" fill="#26364B"></path>
</svg>
