<svg width="24" height="23" viewBox="0 0 24 23" fill="none" xmlns="http://www.w3.org/2000/svg">
<path d="M11.524 4.53046L10.4912 3.44953C8.06676 0.912203 3.62132 1.7878 2.01658 4.97779C1.26318 6.47818 1.0932 8.64444 2.4689 11.4091C3.79418 14.0711 6.55133 17.2596 11.524 20.7327C16.4967 17.2596 19.2524 14.0711 20.5791 11.4091C21.9548 8.64298 21.7863 6.47818 21.0314 4.97779C19.4267 1.7878 14.9813 0.910737 12.5569 3.44806L11.524 4.53046ZM11.524 22.5C-10.5635 7.63978 4.72331 -3.95858 11.2705 2.17647C11.3569 2.25713 11.4419 2.34073 11.524 2.42726C11.6053 2.34081 11.6899 2.25764 11.7775 2.17793C18.3233 -3.96151 33.6115 7.63831 11.524 22.5Z" fill="#333333"/>
</svg>
